<?xml version="1.0" standalone="no"?><!DOCTYPE svg PUBLIC "-//W3C//DTD SVG 1.1//EN" "http://www.w3.org/Graphics/SVG/1.1/DTD/svg11.dtd"><svg t="1606432178807" class="icon" viewBox="0 0 1024 1024" version="1.1" xmlns="http://www.w3.org/2000/svg" p-id="3122" xmlns:xlink="http://www.w3.org/1999/xlink" width="200" height="200"><defs><style type="text/css"></style></defs><path d="M706.6 964.3H317.4c-1.7 0-1.7 0-1.7-1.7V640c0-10.2 6.8-17.1 17.1-17.1h358.4c10.2 0 17.1 6.8 17.1 17.1l-1.7 324.3c1.7 0 1.7 0 0 0z m-15.4-358.4H332.8l83.6-361.8c1.7-8.5 8.5-13.7 17.1-13.7h143.4c8.5 0 15.4 5.1 17.1 13.7l97.2 361.8zM554.7 230.4H452.3l46.1-165.5c1.7-6.8 10.2-6.8 11.9 0l44.4 165.5z" p-id="3123"></path></svg>